<svg width="11" height="12" viewBox="0 0 11 12" fill="none" xmlns="http://www.w3.org/2000/svg">
<path d="M10.2583 6.59163C10.1808 6.51352 10.0886 6.45152 9.98707 6.40922C9.88553 6.36691 9.7766 6.34513 9.66659 6.34513C9.55658 6.34513 9.44766 6.36691 9.34611 6.40922C9.24456 6.45152 9.1524 6.51352 9.07493 6.59163L6.33326 9.33329V0.999959C6.33326 0.778946 6.24546 0.566984 6.08918 0.410704C5.9329 0.254424 5.72094 0.166626 5.49993 0.166626C5.27891 0.166626 5.06695 0.254424 4.91067 0.410704C4.75439 0.566984 4.66659 0.778946 4.66659 0.999959V9.33329L1.92493 6.59163C1.84746 6.51352 1.75529 6.45152 1.65374 6.40922C1.55219 6.36691 1.44327 6.34513 1.33326 6.34513C1.22325 6.34513 1.11433 6.36691 1.01278 6.40922C0.911231 6.45152 0.819064 6.51352 0.741595 6.59163C0.586386 6.74776 0.499268 6.95897 0.499268 7.17913C0.499268 7.39928 0.586386 7.61049 0.741595 7.76663L4.32493 11.3416C4.63605 11.6546 5.05861 11.8314 5.49993 11.8333C5.93835 11.8292 6.35751 11.6526 6.66659 11.3416L10.2499 7.76663C10.4062 7.61159 10.4949 7.401 10.4964 7.18085C10.498 6.96069 10.4124 6.74886 10.2583 6.59163Z" fill="#EB3D4D"/>
</svg>
