<svg width="10" height="6" viewBox="0 0 10 6" fill="none" xmlns="http://www.w3.org/2000/svg">
<path d="M1.27325 5.66656H8.72658C8.85843 5.66601 8.98715 5.62638 9.09647 5.55267C9.2058 5.47896 9.29081 5.37449 9.34076 5.25247C9.39071 5.13045 9.40336 4.99635 9.3771 4.86714C9.35084 4.73794 9.28686 4.61941 9.19325 4.52657L5.47325 0.806574C5.41127 0.744088 5.33754 0.694492 5.2563 0.660646C5.17506 0.626801 5.08792 0.609375 4.99991 0.609375C4.91191 0.609375 4.82477 0.626801 4.74353 0.660646C4.66229 0.694492 4.58856 0.744088 4.52658 0.806574L0.80658 4.52657C0.712966 4.61941 0.648985 4.73794 0.622728 4.86714C0.596471 4.99635 0.609118 5.13045 0.659068 5.25247C0.709018 5.37449 0.79403 5.47896 0.903352 5.55267C1.01267 5.62638 1.1414 5.66601 1.27325 5.66656Z" fill="#1A9882"/>
</svg>
