<svg width="11" height="13" viewBox="0 0 11 13" fill="none" xmlns="http://www.w3.org/2000/svg">
<path d="M10.2585 4.23336L6.67517 0.658361C6.3629 0.347942 5.94048 0.173706 5.50017 0.173706C5.05986 0.173706 4.63744 0.347942 4.32517 0.658361L0.741839 4.23336C0.58663 4.3895 0.499512 4.60071 0.499512 4.82086C0.499512 5.04102 0.58663 5.25223 0.741839 5.40836C0.819308 5.48647 0.911475 5.54846 1.01302 5.59077C1.11457 5.63308 1.2235 5.65486 1.33351 5.65486C1.44352 5.65486 1.55244 5.63308 1.65399 5.59077C1.75554 5.54846 1.8477 5.48647 1.92517 5.40836L4.66684 2.66669V11.8334C4.66684 12.0544 4.75464 12.2663 4.91092 12.4226C5.0672 12.5789 5.27916 12.6667 5.50017 12.6667C5.72119 12.6667 5.93315 12.5789 6.08943 12.4226C6.24571 12.2663 6.3335 12.0544 6.3335 11.8334V2.66669L9.07517 5.40836C9.23099 5.56528 9.44275 5.65388 9.66389 5.65466C9.88503 5.65544 10.0974 5.56834 10.2543 5.41253C10.4113 5.25671 10.4999 5.04494 10.5006 4.82381C10.5014 4.60267 10.4143 4.39028 10.2585 4.23336Z" fill="#22CAAD"/>
</svg>
