<svg width="40" height="40" viewBox="0 0 40 40" fill="none" xmlns="http://www.w3.org/2000/svg">
<rect width="40" height="40" rx="20" fill="#E9FAF7"/>
<path d="M26.7499 20.3178V19.2498C26.7499 17.4595 26.0387 15.7427 24.7729 14.4768C23.507 13.2109 21.7901 12.4998 19.9999 12.4998C18.2097 12.4998 16.4928 13.2109 15.2269 14.4768C13.9611 15.7427 13.2499 17.4595 13.2499 19.2498V20.3178C12.4633 20.6641 11.8195 21.2702 11.4264 22.0346C11.0332 22.7989 10.9146 23.6751 11.0903 24.5164C11.266 25.3578 11.7255 26.1133 12.3917 26.6563C13.0579 27.1994 13.8904 27.4972 14.7499 27.4998C15.1477 27.4998 15.5293 27.3417 15.8106 27.0604C16.0919 26.7791 16.2499 26.3976 16.2499 25.9998V21.4998C16.2499 21.1019 16.0919 20.7204 15.8106 20.4391C15.5293 20.1578 15.1477 19.9998 14.7499 19.9998V19.2498C14.7499 17.8574 15.303 16.522 16.2876 15.5374C17.2722 14.5529 18.6075 13.9998 19.9999 13.9998C21.3923 13.9998 22.7276 14.5529 23.7122 15.5374C24.6968 16.522 25.2499 17.8574 25.2499 19.2498V19.9998C24.8521 19.9998 24.4705 20.1578 24.1892 20.4391C23.9079 20.7204 23.7499 21.1019 23.7499 21.4998V25.9998C23.7499 26.3976 23.9079 26.7791 24.1892 27.0604C24.4705 27.3417 24.8521 27.4998 25.2499 27.4998C26.1094 27.4972 26.942 27.1994 27.6081 26.6563C28.2743 26.1133 28.7338 25.3578 28.9095 24.5164C29.0852 23.6751 28.9666 22.7989 28.5734 22.0346C28.1803 21.2702 27.5365 20.6641 26.7499 20.3178Z" fill="#22CAAD"/>
</svg>
