<svg width="40" height="40" viewBox="0 0 40 40" fill="none" xmlns="http://www.w3.org/2000/svg">
<rect width="40" height="40" rx="20" fill="#FFFAE7"/>
<g clip-path="url(#clip0_81_50570)">
<path d="M26.75 21.5C26.7488 20.5058 26.3533 19.5527 25.6503 18.8497C24.9473 18.1467 23.9942 17.7512 23 17.75H17C16.0058 17.7512 15.0527 18.1467 14.3497 18.8497C13.6467 19.5527 13.2512 20.5058 13.25 21.5V22.25C13.25 24.0402 13.9612 25.7571 15.227 27.023C16.4929 28.2888 18.2098 29 20 29C21.7902 29 23.5071 28.2888 24.773 27.023C26.0388 25.7571 26.75 24.0402 26.75 22.25V21.5Z" fill="#F9C80E"/>
<path d="M22.2501 11H17.7501C16.9545 11 16.1914 11.3161 15.6288 11.8787C15.0662 12.4413 14.7501 13.2044 14.7501 14V16.7638C15.4523 16.4266 16.2212 16.251 17.0001 16.25H23.0001C23.7791 16.251 24.5479 16.4266 25.2501 16.7638V14C25.2501 13.2044 24.9341 12.4413 24.3714 11.8787C23.8088 11.3161 23.0458 11 22.2501 11V11ZM18.5001 14.75C18.3518 14.75 18.2068 14.706 18.0834 14.6236C17.9601 14.5412 17.864 14.4241 17.8072 14.287C17.7504 14.15 17.7356 13.9992 17.7645 13.8537C17.7935 13.7082 17.8649 13.5746 17.9698 13.4697C18.0747 13.3648 18.2083 13.2933 18.3538 13.2644C18.4993 13.2355 18.6501 13.2503 18.7871 13.3071C18.9242 13.3639 19.0413 13.46 19.1237 13.5833C19.2061 13.7067 19.2501 13.8517 19.2501 14C19.2501 14.1989 19.1711 14.3897 19.0305 14.5303C18.8898 14.671 18.699 14.75 18.5001 14.75ZM21.5001 14.75C21.3518 14.75 21.2068 14.706 21.0834 14.6236C20.9601 14.5412 20.864 14.4241 20.8072 14.287C20.7504 14.15 20.7356 13.9992 20.7645 13.8537C20.7935 13.7082 20.8649 13.5746 20.9698 13.4697C21.0747 13.3648 21.2083 13.2933 21.3538 13.2644C21.4993 13.2355 21.6501 13.2503 21.7871 13.3071C21.9242 13.3639 22.0413 13.46 22.1237 13.5833C22.2061 13.7067 22.2501 13.8517 22.2501 14C22.2501 14.1989 22.1711 14.3897 22.0305 14.5303C21.8898 14.671 21.699 14.75 21.5001 14.75Z" fill="#F9C80E"/>
</g>
<defs>
<clipPath id="clip0_81_50570">
<rect width="18" height="18" fill="white" transform="translate(11 11)"/>
</clipPath>
</defs>
</svg>
