<svg width="40" height="40" viewBox="0 0 40 40" fill="none" xmlns="http://www.w3.org/2000/svg">
<rect width="40" height="40" rx="20" fill="#FEECEE"/>
<g clip-path="url(#clip0_81_50580)">
<path d="M22.886 23.0002C22.668 23.0002 22.4526 23.0477 22.2548 23.1394C22.057 23.2311 21.8816 23.3648 21.7408 23.5312L21.5555 23.7502H18.4438L18.2592 23.5312C18.1183 23.3647 17.9428 23.231 17.7449 23.1392C17.5469 23.0475 17.3314 23.0001 17.1132 23.0002H12.875C12.3777 23.0002 11.9008 23.1978 11.5492 23.5494C11.1975 23.901 11 24.378 11 24.8752V24.8752C11 25.3725 11.1975 25.8494 11.5492 26.2011C11.9008 26.5527 12.3777 26.7502 12.875 26.7502H27.125C27.3712 26.7502 27.615 26.7017 27.8425 26.6075C28.07 26.5133 28.2767 26.3752 28.4508 26.2011C28.6249 26.027 28.763 25.8203 28.8573 25.5928C28.9515 25.3653 29 25.1215 29 24.8752C29 24.629 28.9515 24.3852 28.8573 24.1577C28.763 23.9302 28.6249 23.7235 28.4508 23.5494C28.2767 23.3753 28.07 23.2372 27.8425 23.143C27.615 23.0487 27.3712 23.0002 27.125 23.0002H22.886Z" fill="#EB3D4D"/>
<path d="M13.2501 21.5H17.1134C17.845 21.4989 18.5517 21.7657 19.1001 22.25H20.9001C21.4484 21.7665 22.1543 21.4998 22.8854 21.5H26.7501C27.0023 21.5017 27.2536 21.5294 27.5001 21.5825V17C27.4989 16.0058 27.1035 15.0527 26.4005 14.3497C25.6975 13.6467 24.7443 13.2512 23.7501 13.25H16.2501C15.2559 13.2512 14.3028 13.6467 13.5998 14.3497C12.8968 15.0527 12.5013 16.0058 12.5001 17V21.5825C12.7466 21.5294 12.998 21.5017 13.2501 21.5Z" fill="#EB3D4D"/>
</g>
<defs>
<clipPath id="clip0_81_50580">
<rect width="18" height="18" fill="white" transform="translate(11 11)"/>
</clipPath>
</defs>
</svg>
