<svg width="40" height="40" viewBox="0 0 40 40" fill="none" xmlns="http://www.w3.org/2000/svg">
<rect width="40" height="40" rx="20" fill="#EAF8FF"/>
<g clip-path="url(#clip0_81_50577)">
<path d="M20.75 13.25V11.75C20.75 11.5511 20.671 11.3603 20.5303 11.2197C20.3897 11.079 20.1989 11 20 11C19.8011 11 19.6103 11.079 19.4697 11.2197C19.329 11.3603 19.25 11.5511 19.25 11.75V13.25C17.8581 13.2516 16.5237 13.8052 15.5394 14.7894C14.5552 15.7737 14.0016 17.1081 14 18.5V23C14 24.5913 14.6321 26.1174 15.7574 27.2426C16.8826 28.3679 18.4087 29 20 29C21.5913 29 23.1174 28.3679 24.2426 27.2426C25.3679 26.1174 26 24.5913 26 23V18.5C25.9984 17.1081 25.4448 15.7737 24.4606 14.7894C23.4763 13.8052 22.1419 13.2516 20.75 13.25ZM20.75 18.5C20.75 18.6989 20.671 18.8897 20.5303 19.0303C20.3897 19.171 20.1989 19.25 20 19.25C19.8011 19.25 19.6103 19.171 19.4697 19.0303C19.329 18.8897 19.25 18.6989 19.25 18.5V17C19.25 16.8011 19.329 16.6103 19.4697 16.4697C19.6103 16.329 19.8011 16.25 20 16.25C20.1989 16.25 20.3897 16.329 20.5303 16.4697C20.671 16.6103 20.75 16.8011 20.75 17V18.5Z" fill="#2BB2FE"/>
</g>
<defs>
<clipPath id="clip0_81_50577">
<rect width="18" height="18" fill="white" transform="translate(11 11)"/>
</clipPath>
</defs>
</svg>
