<svg width="40" height="40" viewBox="0 0 40 40" fill="none" xmlns="http://www.w3.org/2000/svg">
<rect width="40" height="40" rx="20" fill="#EAF8FF"/>
<g clip-path="url(#clip0_81_50566)">
<path d="M22.25 11H17.75C16.7558 11.0012 15.8027 11.3967 15.0997 12.0997C14.3967 12.8027 14.0012 13.7558 14 14.75V23H26V14.75C25.9988 13.7558 25.6033 12.8027 24.9003 12.0997C24.1973 11.3967 23.2442 11.0012 22.25 11V11Z" fill="#2086BF"/>
<path d="M14 25.25C14.0012 26.2442 14.3967 27.1973 15.0997 27.9003C15.8027 28.6033 16.7558 28.9988 17.75 29H22.25C23.2442 28.9988 24.1973 28.6033 24.9003 27.9003C25.6033 27.1973 25.9988 26.2442 26 25.25V24.5H14V25.25ZM20 26C20.1483 26 20.2933 26.044 20.4167 26.1264C20.54 26.2088 20.6361 26.3259 20.6929 26.463C20.7497 26.6 20.7645 26.7508 20.7356 26.8963C20.7067 27.0418 20.6352 27.1754 20.5303 27.2803C20.4254 27.3852 20.2918 27.4567 20.1463 27.4856C20.0008 27.5145 19.85 27.4997 19.713 27.4429C19.5759 27.3861 19.4588 27.29 19.3764 27.1667C19.294 27.0433 19.25 26.8983 19.25 26.75C19.25 26.5511 19.329 26.3603 19.4697 26.2197C19.6103 26.079 19.8011 26 20 26Z" fill="#2086BF"/>
</g>
<defs>
<clipPath id="clip0_81_50566">
<rect width="18" height="18" fill="white" transform="translate(11 11)"/>
</clipPath>
</defs>
</svg>
