<svg width="40" height="40" viewBox="0 0 40 40" fill="none" xmlns="http://www.w3.org/2000/svg">
<rect width="40" height="40" rx="20" fill="#FFF0EA"/>
<g clip-path="url(#clip0_81_50584)">
<path d="M20.7501 25.9995C20.7501 26.1984 20.6711 26.3892 20.5305 26.5298C20.3898 26.6705 20.199 26.7495 20.0001 26.7495C19.8012 26.7495 19.6104 26.6705 19.4698 26.5298C19.3291 26.3892 19.2501 26.1984 19.2501 25.9995V25.2495H12.5001C12.5013 26.2437 12.8968 27.1968 13.5998 27.8998C14.3028 28.6028 15.2559 28.9983 16.2501 28.9995H23.7501C24.7443 28.9983 25.6975 28.6028 26.4005 27.8998C27.1035 27.1968 27.4989 26.2437 27.5001 25.2495H20.7501V25.9995Z" fill="#F86624"/>
<path d="M23.7501 11H16.2501C15.2559 11.0012 14.3028 11.3967 13.5998 12.0997C12.8968 12.8027 12.5013 13.7558 12.5001 14.75V23.75H27.5001V14.75C27.4989 13.7558 27.1035 12.8027 26.4005 12.0997C25.6975 11.3967 24.7443 11.0012 23.7501 11V11Z" fill="#F86624"/>
</g>
<defs>
<clipPath id="clip0_81_50584">
<rect width="18" height="18" fill="white" transform="translate(11 11)"/>
</clipPath>
</defs>
</svg>
